<svg xmlns="http://www.w3.org/2000/svg" width="352" height="352" viewBox="0 0 88 88"><rect width="88" height="88" fill="#906147"/><path d="M9 9 l8 -1 3 5 -2 6 -9 -1z" fill="#5b3029" stroke="#c27a44" stroke-width=".6"/><path d="M9 29 l8 -1 3 5 -2 6 -9 -1z" fill="#5b3029" stroke="#c27a44" stroke-width=".6"/><path d="M9 49 l8 -1 3 5 -2 6 -9 -1z" fill="#5b3029" stroke="#c27a44" stroke-width=".6"/><path d="M9 69 l8 -1 3 5 -2 6 -9 -1z" fill="#5b3029" stroke="#c27a44" stroke-width=".6"/><path d="M69 9 l8 -1 3 5 -2 6 -9 -1z" fill="#5b3029" stroke="#c27a44" stroke-width=".6"/><path d="M69 29 l8 -1 3 5 -2 6 -9 -1z" fill="#5b3029" stroke="#c27a44" stroke-width=".6"/><path d="M69 49 l8 -1 3 5 -2 6 -9 -1z" fill="#5b3029" stroke="#c27a44" stroke-width=".6"/><path d="M69 69 l8 -1 3 5 -2 6 -9 -1z" fill="#5b3029" stroke="#c27a44" stroke-width=".6"/><circle cx="1" cy="1" r="0.3" fill="#c27a44" opacity=".45"/><circle cx="38" cy="54" r="0.42" fill="#c27a44" opacity=".45"/><circle cx="75" cy="21" r="0.54" fill="#c27a44" opacity=".45"/><circle cx="26" cy="74" r="0.6599999999999999" fill="#c27a44" opacity=".45"/><circle cx="63" cy="41" r="0.3" fill="#c27a44" opacity=".45"/><circle cx="14" cy="8" r="0.42" fill="#c27a44" opacity=".45"/><circle cx="51" cy="61" r="0.54" fill="#c27a44" opacity=".45"/><circle cx="2" cy="29" r="0.6599999999999999" fill="#c27a44" opacity=".45"/><circle cx="39" cy="82" r="0.3" fill="#c27a44" opacity=".45"/><circle cx="76" cy="49" r="0.42" fill="#c27a44" opacity=".45"/><circle cx="27" cy="16" r="0.54" fill="#c27a44" opacity=".45"/><circle cx="64" cy="69" r="0.6599999999999999" fill="#c27a44" opacity=".45"/><circle cx="15" cy="36" r="0.3" fill="#c27a44" opacity=".45"/><circle cx="52" cy="3" r="0.42" fill="#c27a44" opacity=".45"/><circle cx="3" cy="57" r="0.54" fill="#c27a44" opacity=".45"/><circle cx="40" cy="24" r="0.6599999999999999" fill="#c27a44" opacity=".45"/><circle cx="77" cy="77" r="0.3" fill="#c27a44" opacity=".45"/><circle cx="28" cy="44" r="0.42" fill="#c27a44" opacity=".45"/><circle cx="65" cy="11" r="0.54" fill="#c27a44" opacity=".45"/><circle cx="16" cy="64" r="0.6599999999999999" fill="#c27a44" opacity=".45"/><circle cx="53" cy="31" r="0.3" fill="#c27a44" opacity=".45"/><circle cx="4" cy="85" r="0.42" fill="#c27a44" opacity=".45"/><circle cx="41" cy="52" r="0.54" fill="#c27a44" opacity=".45"/><circle cx="78" cy="19" r="0.6599999999999999" fill="#c27a44" opacity=".45"/><circle cx="29" cy="72" r="0.3" fill="#c27a44" opacity=".45"/><circle cx="66" cy="39" r="0.42" fill="#c27a44" opacity=".45"/><circle cx="17" cy="6" r="0.54" fill="#c27a44" opacity=".45"/><circle cx="54" cy="59" r="0.6599999999999999" fill="#c27a44" opacity=".45"/><circle cx="5" cy="27" r="0.3" fill="#c27a44" opacity=".45"/><circle cx="42" cy="80" r="0.42" fill="#c27a44" opacity=".45"/><circle cx="79" cy="47" r="0.54" fill="#c27a44" opacity=".45"/><circle cx="30" cy="14" r="0.6599999999999999" fill="#c27a44" opacity=".45"/><circle cx="67" cy="67" r="0.3" fill="#c27a44" opacity=".45"/><circle cx="18" cy="34" r="0.42" fill="#c27a44" opacity=".45"/><circle cx="55" cy="1" r="0.54" fill="#c27a44" opacity=".45"/><circle cx="6" cy="55" r="0.6599999999999999" fill="#c27a44" opacity=".45"/><circle cx="43" cy="22" r="0.3" fill="#c27a44" opacity=".45"/><circle cx="80" cy="75" r="0.42" fill="#c27a44" opacity=".45"/><circle cx="31" cy="42" r="0.54" fill="#c27a44" opacity=".45"/><circle cx="68" cy="9" r="0.6599999999999999" fill="#c27a44" opacity=".45"/><circle cx="19" cy="62" r="0.3" fill="#c27a44" opacity=".45"/><circle cx="56" cy="29" r="0.42" fill="#c27a44" opacity=".45"/><circle cx="7" cy="83" r="0.54" fill="#c27a44" opacity=".45"/><circle cx="44" cy="50" r="0.6599999999999999" fill="#c27a44" opacity=".45"/><circle cx="81" cy="17" r="0.3" fill="#c27a44" opacity=".45"/><circle cx="32" cy="70" r="0.42" fill="#c27a44" opacity=".45"/><circle cx="69" cy="37" r="0.54" fill="#c27a44" opacity=".45"/><circle cx="20" cy="4" r="0.6599999999999999" fill="#c27a44" opacity=".45"/><circle cx="57" cy="57" r="0.3" fill="#c27a44" opacity=".45"/><circle cx="8" cy="25" r="0.42" fill="#c27a44" opacity=".45"/><circle cx="45" cy="78" r="0.54" fill="#c27a44" opacity=".45"/><circle cx="82" cy="45" r="0.6599999999999999" fill="#c27a44" opacity=".45"/><circle cx="33" cy="12" r="0.3" fill="#c27a44" opacity=".45"/><circle cx="70" cy="65" r="0.42" fill="#c27a44" opacity=".45"/><circle cx="21" cy="32" r="0.54" fill="#c27a44" opacity=".45"/><circle cx="58" cy="85" r="0.6599999999999999" fill="#c27a44" opacity=".45"/><circle cx="9" cy="53" r="0.3" fill="#c27a44" opacity=".45"/><circle cx="46" cy="20" r="0.42" fill="#c27a44" opacity=".45"/><circle cx="83" cy="73" r="0.54" fill="#c27a44" opacity=".45"/><circle cx="34" cy="40" r="0.6599999999999999" fill="#c27a44" opacity=".45"/><circle cx="71" cy="7" r="0.3" fill="#c27a44" opacity=".45"/><circle cx="22" cy="60" r="0.42" fill="#c27a44" opacity=".45"/><circle cx="59" cy="27" r="0.54" fill="#c27a44" opacity=".45"/><circle cx="10" cy="81" r="0.6599999999999999" fill="#c27a44" opacity=".45"/><circle cx="47" cy="48" r="0.3" fill="#c27a44" opacity=".45"/><circle cx="84" cy="15" r="0.42" fill="#c27a44" opacity=".45"/><circle cx="35" cy="68" r="0.54" fill="#c27a44" opacity=".45"/><circle cx="72" cy="35" r="0.6599999999999999" fill="#c27a44" opacity=".45"/><circle cx="23" cy="2" r="0.3" fill="#c27a44" opacity=".45"/><circle cx="60" cy="55" r="0.42" fill="#c27a44" opacity=".45"/><circle cx="11" cy="23" r="0.54" fill="#c27a44" opacity=".45"/><circle cx="48" cy="76" r="0.6599999999999999" fill="#c27a44" opacity=".45"/><circle cx="85" cy="43" r="0.3" fill="#c27a44" opacity=".45"/><circle cx="36" cy="10" r="0.42" fill="#c27a44" opacity=".45"/><circle cx="73" cy="63" r="0.54" fill="#c27a44" opacity=".45"/><circle cx="24" cy="30" r="0.6599999999999999" fill="#c27a44" opacity=".45"/><circle cx="61" cy="83" r="0.3" fill="#c27a44" opacity=".45"/><circle cx="12" cy="51" r="0.42" fill="#c27a44" opacity=".45"/><circle cx="49" cy="18" r="0.54" fill="#c27a44" opacity=".45"/><circle cx="86" cy="71" r="0.6599999999999999" fill="#c27a44" opacity=".45"/><circle cx="37" cy="38" r="0.3" fill="#c27a44" opacity=".45"/><circle cx="74" cy="5" r="0.42" fill="#c27a44" opacity=".45"/><circle cx="25" cy="58" r="0.54" fill="#c27a44" opacity=".45"/><circle cx="62" cy="25" r="0.6599999999999999" fill="#c27a44" opacity=".45"/><circle cx="13" cy="79" r="0.3" fill="#c27a44" opacity=".45"/><circle cx="50" cy="46" r="0.42" fill="#c27a44" opacity=".45"/><circle cx="1" cy="13" r="0.54" fill="#c27a44" opacity=".45"/><circle cx="38" cy="66" r="0.6599999999999999" fill="#c27a44" opacity=".45"/><circle cx="75" cy="33" r="0.3" fill="#c27a44" opacity=".45"/><circle cx="26" cy="86" r="0.42" fill="#c27a44" opacity=".45"/><circle cx="63" cy="53" r="0.54" fill="#c27a44" opacity=".45"/><circle cx="14" cy="21" r="0.6599999999999999" fill="#c27a44" opacity=".45"/><circle cx="51" cy="74" r="0.3" fill="#c27a44" opacity=".45"/><circle cx="2" cy="41" r="0.42" fill="#c27a44" opacity=".45"/><circle cx="39" cy="8" r="0.54" fill="#c27a44" opacity=".45"/><circle cx="76" cy="61" r="0.6599999999999999" fill="#c27a44" opacity=".45"/><circle cx="27" cy="28" r="0.3" fill="#c27a44" opacity=".45"/><circle cx="64" cy="81" r="0.42" fill="#c27a44" opacity=".45"/><circle cx="15" cy="49" r="0.54" fill="#c27a44" opacity=".45"/><circle cx="52" cy="16" r="0.6599999999999999" fill="#c27a44" opacity=".45"/><circle cx="3" cy="69" r="0.3" fill="#c27a44" opacity=".45"/><circle cx="40" cy="36" r="0.42" fill="#c27a44" opacity=".45"/><circle cx="77" cy="3" r="0.54" fill="#c27a44" opacity=".45"/><circle cx="28" cy="56" r="0.6599999999999999" fill="#c27a44" opacity=".45"/><circle cx="65" cy="23" r="0.3" fill="#c27a44" opacity=".45"/><circle cx="16" cy="77" r="0.42" fill="#c27a44" opacity=".45"/><circle cx="53" cy="44" r="0.54" fill="#c27a44" opacity=".45"/><circle cx="4" cy="11" r="0.6599999999999999" fill="#c27a44" opacity=".45"/><circle cx="41" cy="64" r="0.3" fill="#c27a44" opacity=".45"/><circle cx="78" cy="31" r="0.42" fill="#c27a44" opacity=".45"/><circle cx="29" cy="84" r="0.54" fill="#c27a44" opacity=".45"/><circle cx="66" cy="51" r="0.6599999999999999" fill="#c27a44" opacity=".45"/><circle cx="17" cy="19" r="0.3" fill="#c27a44" opacity=".45"/><circle cx="54" cy="72" r="0.42" fill="#c27a44" opacity=".45"/><circle cx="5" cy="39" r="0.54" fill="#c27a44" opacity=".45"/><circle cx="42" cy="6" r="0.6599999999999999" fill="#c27a44" opacity=".45"/><circle cx="79" cy="59" r="0.3" fill="#c27a44" opacity=".45"/><circle cx="30" cy="26" r="0.42" fill="#c27a44" opacity=".45"/><circle cx="67" cy="79" r="0.54" fill="#c27a44" opacity=".45"/><circle cx="18" cy="47" r="0.6599999999999999" fill="#c27a44" opacity=".45"/><circle cx="55" cy="14" r="0.3" fill="#c27a44" opacity=".45"/><circle cx="6" cy="67" r="0.42" fill="#c27a44" opacity=".45"/><circle cx="43" cy="34" r="0.54" fill="#c27a44" opacity=".45"/><circle cx="80" cy="1" r="0.6599999999999999" fill="#c27a44" opacity=".45"/><circle cx="31" cy="54" r="0.3" fill="#c27a44" opacity=".45"/><circle cx="68" cy="21" r="0.42" fill="#c27a44" opacity=".45"/><circle cx="19" cy="75" r="0.54" fill="#c27a44" opacity=".45"/><circle cx="56" cy="42" r="0.6599999999999999" fill="#c27a44" opacity=".45"/><circle cx="7" cy="9" r="0.3" fill="#c27a44" opacity=".45"/><circle cx="44" cy="62" r="0.42" fill="#c27a44" opacity=".45"/><circle cx="81" cy="29" r="0.54" fill="#c27a44" opacity=".45"/><circle cx="32" cy="82" r="0.6599999999999999" fill="#c27a44" opacity=".45"/><circle cx="69" cy="49" r="0.3" fill="#c27a44" opacity=".45"/><circle cx="20" cy="17" r="0.42" fill="#c27a44" opacity=".45"/><circle cx="57" cy="70" r="0.54" fill="#c27a44" opacity=".45"/><circle cx="8" cy="37" r="0.6599999999999999" fill="#c27a44" opacity=".45"/><circle cx="45" cy="4" r="0.3" fill="#c27a44" opacity=".45"/><circle cx="82" cy="57" r="0.42" fill="#c27a44" opacity=".45"/><circle cx="33" cy="24" r="0.54" fill="#c27a44" opacity=".45"/><circle cx="70" cy="77" r="0.6599999999999999" fill="#c27a44" opacity=".45"/><circle cx="21" cy="45" r="0.3" fill="#c27a44" opacity=".45"/><circle cx="58" cy="12" r="0.42" fill="#c27a44" opacity=".45"/><circle cx="9" cy="65" r="0.54" fill="#c27a44" opacity=".45"/><circle cx="46" cy="32" r="0.6599999999999999" fill="#c27a44" opacity=".45"/><circle cx="83" cy="85" r="0.3" fill="#c27a44" opacity=".45"/><circle cx="34" cy="52" r="0.42" fill="#c27a44" opacity=".45"/><circle cx="71" cy="19" r="0.54" fill="#c27a44" opacity=".45"/><circle cx="22" cy="73" r="0.6599999999999999" fill="#c27a44" opacity=".45"/><circle cx="59" cy="40" r="0.3" fill="#c27a44" opacity=".45"/><circle cx="10" cy="7" r="0.42" fill="#c27a44" opacity=".45"/><circle cx="47" cy="60" r="0.54" fill="#c27a44" opacity=".45"/><circle cx="84" cy="27" r="0.6599999999999999" fill="#c27a44" opacity=".45"/><circle cx="35" cy="80" r="0.3" fill="#c27a44" opacity=".45"/><circle cx="72" cy="47" r="0.42" fill="#c27a44" opacity=".45"/><circle cx="23" cy="15" r="0.54" fill="#c27a44" opacity=".45"/><circle cx="60" cy="68" r="0.6599999999999999" fill="#c27a44" opacity=".45"/><circle cx="11" cy="35" r="0.3" fill="#c27a44" opacity=".45"/><circle cx="48" cy="2" r="0.42" fill="#c27a44" opacity=".45"/><circle cx="85" cy="55" r="0.54" fill="#c27a44" opacity=".45"/><circle cx="36" cy="22" r="0.6599999999999999" fill="#c27a44" opacity=".45"/><circle cx="73" cy="75" r="0.3" fill="#c27a44" opacity=".45"/><circle cx="24" cy="43" r="0.42" fill="#c27a44" opacity=".45"/><circle cx="61" cy="10" r="0.54" fill="#c27a44" opacity=".45"/><circle cx="12" cy="63" r="0.6599999999999999" fill="#c27a44" opacity=".45"/><circle cx="49" cy="30" r="0.3" fill="#c27a44" opacity=".45"/><circle cx="86" cy="83" r="0.42" fill="#c27a44" opacity=".45"/><circle cx="37" cy="50" r="0.54" fill="#c27a44" opacity=".45"/><circle cx="74" cy="17" r="0.6599999999999999" fill="#c27a44" opacity=".45"/><circle cx="25" cy="71" r="0.3" fill="#c27a44" opacity=".45"/><circle cx="62" cy="38" r="0.42" fill="#c27a44" opacity=".45"/><circle cx="13" cy="5" r="0.54" fill="#c27a44" opacity=".45"/><circle cx="50" cy="58" r="0.6599999999999999" fill="#c27a44" opacity=".45"/><circle cx="1" cy="25" r="0.3" fill="#c27a44" opacity=".45"/><circle cx="38" cy="78" r="0.42" fill="#c27a44" opacity=".45"/><circle cx="75" cy="45" r="0.54" fill="#c27a44" opacity=".45"/><circle cx="26" cy="13" r="0.6599999999999999" fill="#c27a44" opacity=".45"/><circle cx="63" cy="66" r="0.3" fill="#c27a44" opacity=".45"/><circle cx="14" cy="33" r="0.42" fill="#c27a44" opacity=".45"/><circle cx="51" cy="86" r="0.54" fill="#c27a44" opacity=".45"/><circle cx="2" cy="53" r="0.6599999999999999" fill="#c27a44" opacity=".45"/><circle cx="39" cy="20" r="0.3" fill="#c27a44" opacity=".45"/><circle cx="76" cy="73" r="0.42" fill="#c27a44" opacity=".45"/><circle cx="27" cy="41" r="0.54" fill="#c27a44" opacity=".45"/><circle cx="64" cy="8" r="0.6599999999999999" fill="#c27a44" opacity=".45"/><circle cx="15" cy="61" r="0.3" fill="#c27a44" opacity=".45"/><circle cx="52" cy="28" r="0.42" fill="#c27a44" opacity=".45"/><circle cx="3" cy="81" r="0.54" fill="#c27a44" opacity=".45"/><circle cx="40" cy="48" r="0.6599999999999999" fill="#c27a44" opacity=".45"/><circle cx="77" cy="15" r="0.3" fill="#c27a44" opacity=".45"/><circle cx="28" cy="69" r="0.42" fill="#c27a44" opacity=".45"/><circle cx="65" cy="36" r="0.54" fill="#c27a44" opacity=".45"/><circle cx="16" cy="3" r="0.6599999999999999" fill="#c27a44" opacity=".45"/><circle cx="53" cy="56" r="0.3" fill="#c27a44" opacity=".45"/><circle cx="4" cy="23" r="0.42" fill="#c27a44" opacity=".45"/><circle cx="41" cy="76" r="0.54" fill="#c27a44" opacity=".45"/><circle cx="78" cy="43" r="0.6599999999999999" fill="#c27a44" opacity=".45"/><circle cx="29" cy="11" r="0.3" fill="#c27a44" opacity=".45"/><circle cx="66" cy="64" r="0.42" fill="#c27a44" opacity=".45"/><circle cx="17" cy="31" r="0.54" fill="#c27a44" opacity=".45"/><circle cx="54" cy="84" r="0.6599999999999999" fill="#c27a44" opacity=".45"/><circle cx="5" cy="51" r="0.3" fill="#c27a44" opacity=".45"/><circle cx="42" cy="18" r="0.42" fill="#c27a44" opacity=".45"/><circle cx="79" cy="71" r="0.54" fill="#c27a44" opacity=".45"/><circle cx="30" cy="39" r="0.6599999999999999" fill="#c27a44" opacity=".45"/><circle cx="67" cy="6" r="0.3" fill="#c27a44" opacity=".45"/><circle cx="18" cy="59" r="0.42" fill="#c27a44" opacity=".45"/><circle cx="55" cy="26" r="0.54" fill="#c27a44" opacity=".45"/><circle cx="6" cy="79" r="0.6599999999999999" fill="#c27a44" opacity=".45"/><circle cx="43" cy="46" r="0.3" fill="#c27a44" opacity=".45"/><circle cx="80" cy="13" r="0.42" fill="#c27a44" opacity=".45"/><circle cx="31" cy="67" r="0.54" fill="#c27a44" opacity=".45"/><circle cx="68" cy="34" r="0.6599999999999999" fill="#c27a44" opacity=".45"/><circle cx="19" cy="1" r="0.3" fill="#c27a44" opacity=".45"/><circle cx="56" cy="54" r="0.42" fill="#c27a44" opacity=".45"/><circle cx="7" cy="21" r="0.54" fill="#c27a44" opacity=".45"/><circle cx="44" cy="74" r="0.6599999999999999" fill="#c27a44" opacity=".45"/><circle cx="81" cy="41" r="0.3" fill="#c27a44" opacity=".45"/><circle cx="32" cy="9" r="0.42" fill="#c27a44" opacity=".45"/><circle cx="69" cy="62" r="0.54" fill="#c27a44" opacity=".45"/><circle cx="20" cy="29" r="0.6599999999999999" fill="#c27a44" opacity=".45"/><circle cx="57" cy="82" r="0.3" fill="#c27a44" opacity=".45"/><circle cx="8" cy="49" r="0.42" fill="#c27a44" opacity=".45"/><circle cx="45" cy="16" r="0.54" fill="#c27a44" opacity=".45"/><circle cx="82" cy="69" r="0.6599999999999999" fill="#c27a44" opacity=".45"/><circle cx="33" cy="37" r="0.3" fill="#c27a44" opacity=".45"/><circle cx="70" cy="4" r="0.42" fill="#c27a44" opacity=".45"/><circle cx="21" cy="57" r="0.54" fill="#c27a44" opacity=".45"/><circle cx="58" cy="24" r="0.6599999999999999" fill="#c27a44" opacity=".45"/><circle cx="9" cy="77" r="0.3" fill="#c27a44" opacity=".45"/><circle cx="46" cy="44" r="0.42" fill="#c27a44" opacity=".45"/><circle cx="83" cy="11" r="0.54" fill="#c27a44" opacity=".45"/><circle cx="34" cy="65" r="0.6599999999999999" fill="#c27a44" opacity=".45"/><circle cx="71" cy="32" r="0.3" fill="#c27a44" opacity=".45"/><circle cx="22" cy="85" r="0.42" fill="#c27a44" opacity=".45"/><circle cx="59" cy="52" r="0.54" fill="#c27a44" opacity=".45"/><circle cx="10" cy="19" r="0.6599999999999999" fill="#c27a44" opacity=".45"/><circle cx="47" cy="72" r="0.3" fill="#c27a44" opacity=".45"/><circle cx="84" cy="39" r="0.42" fill="#c27a44" opacity=".45"/><circle cx="35" cy="7" r="0.54" fill="#c27a44" opacity=".45"/><circle cx="72" cy="60" r="0.6599999999999999" fill="#c27a44" opacity=".45"/><circle cx="23" cy="27" r="0.3" fill="#c27a44" opacity=".45"/><circle cx="60" cy="80" r="0.42" fill="#c27a44" opacity=".45"/><circle cx="11" cy="47" r="0.54" fill="#c27a44" opacity=".45"/><circle cx="48" cy="14" r="0.6599999999999999" fill="#c27a44" opacity=".45"/><circle cx="85" cy="67" r="0.3" fill="#c27a44" opacity=".45"/><circle cx="36" cy="35" r="0.42" fill="#c27a44" opacity=".45"/><circle cx="73" cy="2" r="0.54" fill="#c27a44" opacity=".45"/><circle cx="24" cy="55" r="0.6599999999999999" fill="#c27a44" opacity=".45"/><circle cx="61" cy="22" r="0.3" fill="#c27a44" opacity=".45"/><circle cx="12" cy="75" r="0.42" fill="#c27a44" opacity=".45"/><circle cx="49" cy="42" r="0.54" fill="#c27a44" opacity=".45"/><circle cx="86" cy="9" r="0.6599999999999999" fill="#c27a44" opacity=".45"/><circle cx="37" cy="63" r="0.3" fill="#c27a44" opacity=".45"/><circle cx="74" cy="30" r="0.42" fill="#c27a44" opacity=".45"/><circle cx="25" cy="83" r="0.54" fill="#c27a44" opacity=".45"/><circle cx="62" cy="50" r="0.6599999999999999" fill="#c27a44" opacity=".45"/><circle cx="13" cy="17" r="0.3" fill="#c27a44" opacity=".45"/><circle cx="50" cy="70" r="0.42" fill="#c27a44" opacity=".45"/><circle cx="1" cy="37" r="0.54" fill="#c27a44" opacity=".45"/><circle cx="38" cy="5" r="0.6599999999999999" fill="#c27a44" opacity=".45"/><ellipse cx="26" cy="60" rx="5.0" ry="3.5999999999999996" fill="#b99468" opacity=".72"/><ellipse cx="62" cy="44" rx="6.4" ry="4.608" fill="#b99468" opacity=".72"/><ellipse cx="26" cy="32" rx="5.0" ry="3.5999999999999996" fill="#b99468" opacity=".72"/><ellipse cx="32" cy="52" rx="6.4" ry="4.608" fill="#b99468" opacity=".72"/><ellipse cx="56" cy="34" rx="5.0" ry="3.5999999999999996" fill="#b99468" opacity=".72"/><ellipse cx="32" cy="17" rx="6.4" ry="4.608" fill="#b99468" opacity=".72"/><ellipse cx="64" cy="16" rx="6.2" ry="4.4639999999999995" fill="#b99468" opacity=".72"/><ellipse cx="22" cy="16" rx="6.2" ry="4.4639999999999995" fill="#b99468" opacity=".72"/><polyline points="44.00,83.00 43.69,82.42 43.29,81.72 42.83,80.89 42.30,79.96 41.73,78.96 41.12,77.88 40.50,76.76 39.86,75.60 39.23,74.43 38.62,73.25 38.04,72.10 37.50,70.97 37.02,69.90 36.61,68.90 36.20,67.93 35.73,66.98 35.23,66.03 34.72,65.09 34.21,64.15 33.73,63.22 33.31,62.30 32.95,61.38 32.69,60.47 32.54,59.56 32.53,58.65 32.67,57.75 32.99,56.85 33.51,55.95 34.29,55.06 35.35,54.17 36.63,53.29 38.10,52.42 39.73,51.55 41.46,50.69 43.25,49.82 45.08,48.96 46.88,48.11 48.63,47.25 50.27,46.39 51.78,45.54 53.10,44.68 54.20,43.82 55.15,42.96 56.06,42.10 56.92,41.25 57.71,40.40 58.44,39.55 59.09,38.70 59.67,37.85 60.15,37.00 60.53,36.15 60.82,35.29 60.99,34.43 61.04,33.57 60.97,32.70 60.76,31.82 60.36,30.95 59.71,30.07 58.87,29.19 57.86,28.31 56.72,27.42 55.49,26.54 54.20,25.65 52.88,24.75 51.58,23.85 50.33,22.94 49.16,22.02 48.10,21.09 47.21,20.15 46.50,19.19 45.96,18.20 45.51,17.12 45.14,16.00 44.86,14.84 44.64,13.66 44.48,12.48 44.36,11.31 44.28,10.17 44.23,9.09 44.19,8.07 44.16,7.13 44.12,6.30 44.07,5.58 44.00,5.00" fill="none" stroke="#4b3428" stroke-width="5.6" stroke-linecap="round" stroke-linejoin="round" opacity=".45"/><polyline points="44.00,83.00 43.69,82.42 43.29,81.72 42.83,80.89 42.30,79.96 41.73,78.96 41.12,77.88 40.50,76.76 39.86,75.60 39.23,74.43 38.62,73.25 38.04,72.10 37.50,70.97 37.02,69.90 36.61,68.90 36.20,67.93 35.73,66.98 35.23,66.03 34.72,65.09 34.21,64.15 33.73,63.22 33.31,62.30 32.95,61.38 32.69,60.47 32.54,59.56 32.53,58.65 32.67,57.75 32.99,56.85 33.51,55.95 34.29,55.06 35.35,54.17 36.63,53.29 38.10,52.42 39.73,51.55 41.46,50.69 43.25,49.82 45.08,48.96 46.88,48.11 48.63,47.25 50.27,46.39 51.78,45.54 53.10,44.68 54.20,43.82 55.15,42.96 56.06,42.10 56.92,41.25 57.71,40.40 58.44,39.55 59.09,38.70 59.67,37.85 60.15,37.00 60.53,36.15 60.82,35.29 60.99,34.43 61.04,33.57 60.97,32.70 60.76,31.82 60.36,30.95 59.71,30.07 58.87,29.19 57.86,28.31 56.72,27.42 55.49,26.54 54.20,25.65 52.88,24.75 51.58,23.85 50.33,22.94 49.16,22.02 48.10,21.09 47.21,20.15 46.50,19.19 45.96,18.20 45.51,17.12 45.14,16.00 44.86,14.84 44.64,13.66 44.48,12.48 44.36,11.31 44.28,10.17 44.23,9.09 44.19,8.07 44.16,7.13 44.12,6.30 44.07,5.58 44.00,5.00" fill="none" stroke="#b99468" stroke-width="4.1" stroke-linecap="round" stroke-linejoin="round"/><polyline points="32.54,59.56 32.33,59.29 32.04,58.88 31.70,58.38 31.32,57.86 30.92,57.38 30.53,56.99 30.17,56.75 29.85,56.73 29.57,56.98 29.32,57.47 29.07,58.13 28.84,58.88 28.61,59.64 28.39,60.33 28.16,60.88 27.92,61.22 27.67,61.34 27.40,61.29 27.12,61.13 26.84,60.89 26.58,60.62 26.35,60.35 26.15,60.13 26.00,60.00" fill="none" stroke="#b99468" stroke-width="2.5" stroke-linecap="round" stroke-linejoin="round" opacity=".92"/><polyline points="57.71,40.40 58.08,40.22 58.62,39.92 59.26,39.56 59.95,39.20 60.63,38.87 61.22,38.65 61.67,38.58 61.91,38.70 61.91,39.10 61.69,39.74 61.33,40.55 60.89,41.45 60.44,42.36 60.04,43.21 59.75,43.90 59.64,44.37 59.73,44.61 59.96,44.69 60.29,44.66 60.68,44.54 61.08,44.38 61.47,44.21 61.79,44.07 62.00,44.00" fill="none" stroke="#b99468" stroke-width="2.5" stroke-linecap="round" stroke-linejoin="round" opacity=".92"/><polyline points="38.10,52.42 38.15,51.58 38.29,50.40 38.46,49.00 38.60,47.47 38.67,45.91 38.59,44.43 38.33,43.13 37.81,42.11 36.93,41.39 35.72,40.89 34.27,40.54 32.70,40.27 31.13,40.04 29.65,39.77 28.39,39.40 27.45,38.87 26.84,38.13 26.43,37.24 26.19,36.25 26.08,35.23 26.05,34.23 26.05,33.32 26.05,32.55 26.00,32.00" fill="none" stroke="#b99468" stroke-width="2.5" stroke-linecap="round" stroke-linejoin="round" opacity=".92"/><polyline points="34.29,55.06 34.00,55.14 33.57,55.27 33.04,55.44 32.49,55.61 31.96,55.74 31.50,55.82 31.17,55.82 31.02,55.70 31.10,55.42 31.38,55.00 31.79,54.48 32.28,53.91 32.77,53.34 33.22,52.81 33.56,52.36 33.72,52.05 33.71,51.87 33.56,51.78 33.32,51.76 33.03,51.80 32.71,51.86 32.41,51.92 32.16,51.98 32.00,52.00" fill="none" stroke="#b99468" stroke-width="2.5" stroke-linecap="round" stroke-linejoin="round" opacity=".92"/><polyline points="60.82,35.29 60.77,34.89 60.73,34.29 60.68,33.56 60.62,32.79 60.53,32.07 60.41,31.46 60.24,31.06 60.02,30.94 59.73,31.18 59.35,31.73 58.92,32.50 58.46,33.38 58.00,34.28 57.56,35.10 57.18,35.74 56.88,36.10 56.66,36.17 56.48,36.04 56.35,35.75 56.24,35.37 56.17,34.95 56.11,34.55 56.05,34.21 56.00,34.00" fill="none" stroke="#b99468" stroke-width="2.5" stroke-linecap="round" stroke-linejoin="round" opacity=".92"/><polyline points="44.86,14.84 44.55,15.37 44.16,16.16 43.70,17.11 43.18,18.12 42.61,19.07 42.02,19.87 41.41,20.42 40.80,20.59 40.16,20.31 39.46,19.63 38.72,18.67 37.96,17.57 37.21,16.44 36.49,15.42 35.82,14.62 35.23,14.18 34.69,14.11 34.18,14.30 33.70,14.68 33.27,15.19 32.87,15.74 32.52,16.28 32.23,16.72 32.00,17.00" fill="none" stroke="#b99468" stroke-width="2.5" stroke-linecap="round" stroke-linejoin="round" opacity=".92"/><polyline points="55.49,26.54 55.96,26.40 56.63,26.26 57.44,26.08 58.30,25.87 59.17,25.61 59.96,25.29 60.61,24.90 61.06,24.42 61.26,23.80 61.27,23.04 61.15,22.17 60.95,21.26 60.73,20.35 60.56,19.48 60.48,18.72 60.57,18.10 60.83,17.62 61.23,17.23 61.72,16.91 62.25,16.66 62.79,16.45 63.29,16.28 63.71,16.13 64.00,16.00" fill="none" stroke="#b99468" stroke-width="2.5" stroke-linecap="round" stroke-linejoin="round" opacity=".92"/><polyline points="44.48,12.48 43.87,12.95 43.07,13.66 42.11,14.50 41.05,15.40 39.92,16.27 38.76,17.01 37.63,17.54 36.55,17.77 35.50,17.62 34.40,17.15 33.29,16.47 32.17,15.66 31.06,14.83 29.99,14.09 28.97,13.52 28.01,13.23 27.10,13.25 26.19,13.48 25.31,13.86 24.47,14.33 23.70,14.84 23.02,15.33 22.45,15.74 22.00,16.00" fill="none" stroke="#b99468" stroke-width="2.5" stroke-linecap="round" stroke-linejoin="round" opacity=".92"/><polyline points="26.00,60.00 25.74,58.69 25.39,57.01 24.97,55.02 24.50,52.78 24.00,50.38 23.50,47.86 23.03,45.29 22.61,42.75 22.26,40.30 22.00,38.00 21.84,35.70 21.74,33.25 21.71,30.71 21.71,28.14 21.75,25.62 21.81,23.22 21.87,20.98 21.94,18.99 21.98,17.31 22.00,16.00" fill="none" stroke="#b99468" stroke-width="2.5" stroke-linecap="round" stroke-linejoin="round" opacity=".92"/></svg>