<svg xmlns="http://www.w3.org/2000/svg" width="352" height="352" viewBox="0 0 88 88"><rect width="88" height="88" fill="#906147"/><path d="M9 9 l8 -1 3 5 -2 6 -9 -1z" fill="#5b3029" stroke="#c27a44" stroke-width=".6"/><path d="M9 29 l8 -1 3 5 -2 6 -9 -1z" fill="#5b3029" stroke="#c27a44" stroke-width=".6"/><path d="M9 49 l8 -1 3 5 -2 6 -9 -1z" fill="#5b3029" stroke="#c27a44" stroke-width=".6"/><path d="M9 69 l8 -1 3 5 -2 6 -9 -1z" fill="#5b3029" stroke="#c27a44" stroke-width=".6"/><path d="M69 9 l8 -1 3 5 -2 6 -9 -1z" fill="#5b3029" stroke="#c27a44" stroke-width=".6"/><path d="M69 29 l8 -1 3 5 -2 6 -9 -1z" fill="#5b3029" stroke="#c27a44" stroke-width=".6"/><path d="M69 49 l8 -1 3 5 -2 6 -9 -1z" fill="#5b3029" stroke="#c27a44" stroke-width=".6"/><path d="M69 69 l8 -1 3 5 -2 6 -9 -1z" fill="#5b3029" stroke="#c27a44" stroke-width=".6"/><circle cx="1" cy="1" r="0.3" fill="#c27a44" opacity=".45"/><circle cx="38" cy="54" r="0.42" fill="#c27a44" opacity=".45"/><circle cx="75" cy="21" r="0.54" fill="#c27a44" opacity=".45"/><circle cx="26" cy="74" r="0.6599999999999999" fill="#c27a44" opacity=".45"/><circle cx="63" cy="41" r="0.3" fill="#c27a44" opacity=".45"/><circle cx="14" cy="8" r="0.42" fill="#c27a44" opacity=".45"/><circle cx="51" cy="61" r="0.54" fill="#c27a44" opacity=".45"/><circle cx="2" cy="29" r="0.6599999999999999" fill="#c27a44" opacity=".45"/><circle cx="39" cy="82" r="0.3" fill="#c27a44" opacity=".45"/><circle cx="76" cy="49" r="0.42" fill="#c27a44" opacity=".45"/><circle cx="27" cy="16" r="0.54" fill="#c27a44" opacity=".45"/><circle cx="64" cy="69" r="0.6599999999999999" fill="#c27a44" opacity=".45"/><circle cx="15" cy="36" r="0.3" fill="#c27a44" opacity=".45"/><circle cx="52" cy="3" r="0.42" fill="#c27a44" opacity=".45"/><circle cx="3" cy="57" r="0.54" fill="#c27a44" opacity=".45"/><circle cx="40" cy="24" r="0.6599999999999999" fill="#c27a44" opacity=".45"/><circle cx="77" cy="77" r="0.3" fill="#c27a44" opacity=".45"/><circle cx="28" cy="44" r="0.42" fill="#c27a44" opacity=".45"/><circle cx="65" cy="11" r="0.54" fill="#c27a44" opacity=".45"/><circle cx="16" cy="64" r="0.6599999999999999" fill="#c27a44" opacity=".45"/><circle cx="53" cy="31" r="0.3" fill="#c27a44" opacity=".45"/><circle cx="4" cy="85" r="0.42" fill="#c27a44" opacity=".45"/><circle cx="41" cy="52" r="0.54" fill="#c27a44" opacity=".45"/><circle cx="78" cy="19" r="0.6599999999999999" fill="#c27a44" opacity=".45"/><circle cx="29" cy="72" r="0.3" fill="#c27a44" opacity=".45"/><circle cx="66" cy="39" r="0.42" fill="#c27a44" opacity=".45"/><circle cx="17" cy="6" r="0.54" fill="#c27a44" opacity=".45"/><circle cx="54" cy="59" r="0.6599999999999999" fill="#c27a44" opacity=".45"/><circle cx="5" cy="27" r="0.3" fill="#c27a44" opacity=".45"/><circle cx="42" cy="80" r="0.42" fill="#c27a44" opacity=".45"/><circle cx="79" cy="47" r="0.54" fill="#c27a44" opacity=".45"/><circle cx="30" cy="14" r="0.6599999999999999" fill="#c27a44" opacity=".45"/><circle cx="67" cy="67" r="0.3" fill="#c27a44" opacity=".45"/><circle cx="18" cy="34" r="0.42" fill="#c27a44" opacity=".45"/><circle cx="55" cy="1" r="0.54" fill="#c27a44" opacity=".45"/><circle cx="6" cy="55" r="0.6599999999999999" fill="#c27a44" opacity=".45"/><circle cx="43" cy="22" r="0.3" fill="#c27a44" opacity=".45"/><circle cx="80" cy="75" r="0.42" fill="#c27a44" opacity=".45"/><circle cx="31" cy="42" r="0.54" fill="#c27a44" opacity=".45"/><circle cx="68" cy="9" r="0.6599999999999999" fill="#c27a44" opacity=".45"/><circle cx="19" cy="62" r="0.3" fill="#c27a44" opacity=".45"/><circle cx="56" cy="29" r="0.42" fill="#c27a44" opacity=".45"/><circle cx="7" cy="83" r="0.54" fill="#c27a44" opacity=".45"/><circle cx="44" cy="50" r="0.6599999999999999" fill="#c27a44" opacity=".45"/><circle cx="81" cy="17" r="0.3" fill="#c27a44" opacity=".45"/><circle cx="32" cy="70" r="0.42" fill="#c27a44" opacity=".45"/><circle cx="69" cy="37" r="0.54" fill="#c27a44" opacity=".45"/><circle cx="20" cy="4" r="0.6599999999999999" fill="#c27a44" opacity=".45"/><circle cx="57" cy="57" r="0.3" fill="#c27a44" opacity=".45"/><circle cx="8" cy="25" r="0.42" fill="#c27a44" opacity=".45"/><circle cx="45" cy="78" r="0.54" fill="#c27a44" opacity=".45"/><circle cx="82" cy="45" r="0.6599999999999999" fill="#c27a44" opacity=".45"/><circle cx="33" cy="12" r="0.3" fill="#c27a44" opacity=".45"/><circle cx="70" cy="65" r="0.42" fill="#c27a44" opacity=".45"/><circle cx="21" cy="32" r="0.54" fill="#c27a44" opacity=".45"/><circle cx="58" cy="85" r="0.6599999999999999" fill="#c27a44" opacity=".45"/><circle cx="9" cy="53" r="0.3" fill="#c27a44" opacity=".45"/><circle cx="46" cy="20" r="0.42" fill="#c27a44" opacity=".45"/><circle cx="83" cy="73" r="0.54" fill="#c27a44" opacity=".45"/><circle cx="34" cy="40" r="0.6599999999999999" fill="#c27a44" opacity=".45"/><circle cx="71" cy="7" r="0.3" fill="#c27a44" opacity=".45"/><circle cx="22" cy="60" r="0.42" fill="#c27a44" opacity=".45"/><circle cx="59" cy="27" r="0.54" fill="#c27a44" opacity=".45"/><circle cx="10" cy="81" r="0.6599999999999999" fill="#c27a44" opacity=".45"/><circle cx="47" cy="48" r="0.3" fill="#c27a44" opacity=".45"/><circle cx="84" cy="15" r="0.42" fill="#c27a44" opacity=".45"/><circle cx="35" cy="68" r="0.54" fill="#c27a44" opacity=".45"/><circle cx="72" cy="35" r="0.6599999999999999" fill="#c27a44" opacity=".45"/><circle cx="23" cy="2" r="0.3" fill="#c27a44" opacity=".45"/><circle cx="60" cy="55" r="0.42" fill="#c27a44" opacity=".45"/><circle cx="11" cy="23" r="0.54" fill="#c27a44" opacity=".45"/><circle cx="48" cy="76" r="0.6599999999999999" fill="#c27a44" opacity=".45"/><circle cx="85" cy="43" r="0.3" fill="#c27a44" opacity=".45"/><circle cx="36" cy="10" r="0.42" fill="#c27a44" opacity=".45"/><circle cx="73" cy="63" r="0.54" fill="#c27a44" opacity=".45"/><circle cx="24" cy="30" r="0.6599999999999999" fill="#c27a44" opacity=".45"/><circle cx="61" cy="83" r="0.3" fill="#c27a44" opacity=".45"/><circle cx="12" cy="51" r="0.42" fill="#c27a44" opacity=".45"/><circle cx="49" cy="18" r="0.54" fill="#c27a44" opacity=".45"/><circle cx="86" cy="71" r="0.6599999999999999" fill="#c27a44" opacity=".45"/><circle cx="37" cy="38" r="0.3" fill="#c27a44" opacity=".45"/><circle cx="74" cy="5" r="0.42" fill="#c27a44" opacity=".45"/><circle cx="25" cy="58" r="0.54" fill="#c27a44" opacity=".45"/><circle cx="62" cy="25" r="0.6599999999999999" fill="#c27a44" opacity=".45"/><circle cx="13" cy="79" r="0.3" fill="#c27a44" opacity=".45"/><circle cx="50" cy="46" r="0.42" fill="#c27a44" opacity=".45"/><circle cx="1" cy="13" r="0.54" fill="#c27a44" opacity=".45"/><circle cx="38" cy="66" r="0.6599999999999999" fill="#c27a44" opacity=".45"/><circle cx="75" cy="33" r="0.3" fill="#c27a44" opacity=".45"/><circle cx="26" cy="86" r="0.42" fill="#c27a44" opacity=".45"/><circle cx="63" cy="53" r="0.54" fill="#c27a44" opacity=".45"/><circle cx="14" cy="21" r="0.6599999999999999" fill="#c27a44" opacity=".45"/><circle cx="51" cy="74" r="0.3" fill="#c27a44" opacity=".45"/><circle cx="2" cy="41" r="0.42" fill="#c27a44" opacity=".45"/><circle cx="39" cy="8" r="0.54" fill="#c27a44" opacity=".45"/><circle cx="76" cy="61" r="0.6599999999999999" fill="#c27a44" opacity=".45"/><circle cx="27" cy="28" r="0.3" fill="#c27a44" opacity=".45"/><circle cx="64" cy="81" r="0.42" fill="#c27a44" opacity=".45"/><circle cx="15" cy="49" r="0.54" fill="#c27a44" opacity=".45"/><circle cx="52" cy="16" r="0.6599999999999999" fill="#c27a44" opacity=".45"/><circle cx="3" cy="69" r="0.3" fill="#c27a44" opacity=".45"/><circle cx="40" cy="36" r="0.42" fill="#c27a44" opacity=".45"/><circle cx="77" cy="3" r="0.54" fill="#c27a44" opacity=".45"/><circle cx="28" cy="56" r="0.6599999999999999" fill="#c27a44" opacity=".45"/><circle cx="65" cy="23" r="0.3" fill="#c27a44" opacity=".45"/><circle cx="16" cy="77" r="0.42" fill="#c27a44" opacity=".45"/><circle cx="53" cy="44" r="0.54" fill="#c27a44" opacity=".45"/><circle cx="4" cy="11" r="0.6599999999999999" fill="#c27a44" opacity=".45"/><circle cx="41" cy="64" r="0.3" fill="#c27a44" opacity=".45"/><circle cx="78" cy="31" r="0.42" fill="#c27a44" opacity=".45"/><circle cx="29" cy="84" r="0.54" fill="#c27a44" opacity=".45"/><circle cx="66" cy="51" r="0.6599999999999999" fill="#c27a44" opacity=".45"/><circle cx="17" cy="19" r="0.3" fill="#c27a44" opacity=".45"/><circle cx="54" cy="72" r="0.42" fill="#c27a44" opacity=".45"/><circle cx="5" cy="39" r="0.54" fill="#c27a44" opacity=".45"/><circle cx="42" cy="6" r="0.6599999999999999" fill="#c27a44" opacity=".45"/><circle cx="79" cy="59" r="0.3" fill="#c27a44" opacity=".45"/><circle cx="30" cy="26" r="0.42" fill="#c27a44" opacity=".45"/><circle cx="67" cy="79" r="0.54" fill="#c27a44" opacity=".45"/><circle cx="18" cy="47" r="0.6599999999999999" fill="#c27a44" opacity=".45"/><circle cx="55" cy="14" r="0.3" fill="#c27a44" opacity=".45"/><circle cx="6" cy="67" r="0.42" fill="#c27a44" opacity=".45"/><circle cx="43" cy="34" r="0.54" fill="#c27a44" opacity=".45"/><circle cx="80" cy="1" r="0.6599999999999999" fill="#c27a44" opacity=".45"/><circle cx="31" cy="54" r="0.3" fill="#c27a44" opacity=".45"/><circle cx="68" cy="21" r="0.42" fill="#c27a44" opacity=".45"/><circle cx="19" cy="75" r="0.54" fill="#c27a44" opacity=".45"/><circle cx="56" cy="42" r="0.6599999999999999" fill="#c27a44" opacity=".45"/><circle cx="7" cy="9" r="0.3" fill="#c27a44" opacity=".45"/><circle cx="44" cy="62" r="0.42" fill="#c27a44" opacity=".45"/><circle cx="81" cy="29" r="0.54" fill="#c27a44" opacity=".45"/><circle cx="32" cy="82" r="0.6599999999999999" fill="#c27a44" opacity=".45"/><circle cx="69" cy="49" r="0.3" fill="#c27a44" opacity=".45"/><circle cx="20" cy="17" r="0.42" fill="#c27a44" opacity=".45"/><circle cx="57" cy="70" r="0.54" fill="#c27a44" opacity=".45"/><circle cx="8" cy="37" r="0.6599999999999999" fill="#c27a44" opacity=".45"/><circle cx="45" cy="4" r="0.3" fill="#c27a44" opacity=".45"/><circle cx="82" cy="57" r="0.42" fill="#c27a44" opacity=".45"/><circle cx="33" cy="24" r="0.54" fill="#c27a44" opacity=".45"/><circle cx="70" cy="77" r="0.6599999999999999" fill="#c27a44" opacity=".45"/><circle cx="21" cy="45" r="0.3" fill="#c27a44" opacity=".45"/><circle cx="58" cy="12" r="0.42" fill="#c27a44" opacity=".45"/><circle cx="9" cy="65" r="0.54" fill="#c27a44" opacity=".45"/><circle cx="46" cy="32" r="0.6599999999999999" fill="#c27a44" opacity=".45"/><circle cx="83" cy="85" r="0.3" fill="#c27a44" opacity=".45"/><circle cx="34" cy="52" r="0.42" fill="#c27a44" opacity=".45"/><circle cx="71" cy="19" r="0.54" fill="#c27a44" opacity=".45"/><circle cx="22" cy="73" r="0.6599999999999999" fill="#c27a44" opacity=".45"/><circle cx="59" cy="40" r="0.3" fill="#c27a44" opacity=".45"/><circle cx="10" cy="7" r="0.42" fill="#c27a44" opacity=".45"/><circle cx="47" cy="60" r="0.54" fill="#c27a44" opacity=".45"/><circle cx="84" cy="27" r="0.6599999999999999" fill="#c27a44" opacity=".45"/><circle cx="35" cy="80" r="0.3" fill="#c27a44" opacity=".45"/><circle cx="72" cy="47" r="0.42" fill="#c27a44" opacity=".45"/><circle cx="23" cy="15" r="0.54" fill="#c27a44" opacity=".45"/><circle cx="60" cy="68" r="0.6599999999999999" fill="#c27a44" opacity=".45"/><circle cx="11" cy="35" r="0.3" fill="#c27a44" opacity=".45"/><circle cx="48" cy="2" r="0.42" fill="#c27a44" opacity=".45"/><circle cx="85" cy="55" r="0.54" fill="#c27a44" opacity=".45"/><circle cx="36" cy="22" r="0.6599999999999999" fill="#c27a44" opacity=".45"/><circle cx="73" cy="75" r="0.3" fill="#c27a44" opacity=".45"/><circle cx="24" cy="43" r="0.42" fill="#c27a44" opacity=".45"/><circle cx="61" cy="10" r="0.54" fill="#c27a44" opacity=".45"/><circle cx="12" cy="63" r="0.6599999999999999" fill="#c27a44" opacity=".45"/><circle cx="49" cy="30" r="0.3" fill="#c27a44" opacity=".45"/><circle cx="86" cy="83" r="0.42" fill="#c27a44" opacity=".45"/><circle cx="37" cy="50" r="0.54" fill="#c27a44" opacity=".45"/><circle cx="74" cy="17" r="0.6599999999999999" fill="#c27a44" opacity=".45"/><circle cx="25" cy="71" r="0.3" fill="#c27a44" opacity=".45"/><circle cx="62" cy="38" r="0.42" fill="#c27a44" opacity=".45"/><circle cx="13" cy="5" r="0.54" fill="#c27a44" opacity=".45"/><circle cx="50" cy="58" r="0.6599999999999999" fill="#c27a44" opacity=".45"/><circle cx="1" cy="25" r="0.3" fill="#c27a44" opacity=".45"/><circle cx="38" cy="78" r="0.42" fill="#c27a44" opacity=".45"/><circle cx="75" cy="45" r="0.54" fill="#c27a44" opacity=".45"/><circle cx="26" cy="13" r="0.6599999999999999" fill="#c27a44" opacity=".45"/><circle cx="63" cy="66" r="0.3" fill="#c27a44" opacity=".45"/><circle cx="14" cy="33" r="0.42" fill="#c27a44" opacity=".45"/><circle cx="51" cy="86" r="0.54" fill="#c27a44" opacity=".45"/><circle cx="2" cy="53" r="0.6599999999999999" fill="#c27a44" opacity=".45"/><circle cx="39" cy="20" r="0.3" fill="#c27a44" opacity=".45"/><circle cx="76" cy="73" r="0.42" fill="#c27a44" opacity=".45"/><circle cx="27" cy="41" r="0.54" fill="#c27a44" opacity=".45"/><circle cx="64" cy="8" r="0.6599999999999999" fill="#c27a44" opacity=".45"/><circle cx="15" cy="61" r="0.3" fill="#c27a44" opacity=".45"/><circle cx="52" cy="28" r="0.42" fill="#c27a44" opacity=".45"/><circle cx="3" cy="81" r="0.54" fill="#c27a44" opacity=".45"/><circle cx="40" cy="48" r="0.6599999999999999" fill="#c27a44" opacity=".45"/><circle cx="77" cy="15" r="0.3" fill="#c27a44" opacity=".45"/><circle cx="28" cy="69" r="0.42" fill="#c27a44" opacity=".45"/><circle cx="65" cy="36" r="0.54" fill="#c27a44" opacity=".45"/><circle cx="16" cy="3" r="0.6599999999999999" fill="#c27a44" opacity=".45"/><circle cx="53" cy="56" r="0.3" fill="#c27a44" opacity=".45"/><circle cx="4" cy="23" r="0.42" fill="#c27a44" opacity=".45"/><circle cx="41" cy="76" r="0.54" fill="#c27a44" opacity=".45"/><circle cx="78" cy="43" r="0.6599999999999999" fill="#c27a44" opacity=".45"/><circle cx="29" cy="11" r="0.3" fill="#c27a44" opacity=".45"/><circle cx="66" cy="64" r="0.42" fill="#c27a44" opacity=".45"/><circle cx="17" cy="31" r="0.54" fill="#c27a44" opacity=".45"/><circle cx="54" cy="84" r="0.6599999999999999" fill="#c27a44" opacity=".45"/><circle cx="5" cy="51" r="0.3" fill="#c27a44" opacity=".45"/><circle cx="42" cy="18" r="0.42" fill="#c27a44" opacity=".45"/><circle cx="79" cy="71" r="0.54" fill="#c27a44" opacity=".45"/><circle cx="30" cy="39" r="0.6599999999999999" fill="#c27a44" opacity=".45"/><circle cx="67" cy="6" r="0.3" fill="#c27a44" opacity=".45"/><circle cx="18" cy="59" r="0.42" fill="#c27a44" opacity=".45"/><circle cx="55" cy="26" r="0.54" fill="#c27a44" opacity=".45"/><circle cx="6" cy="79" r="0.6599999999999999" fill="#c27a44" opacity=".45"/><circle cx="43" cy="46" r="0.3" fill="#c27a44" opacity=".45"/><circle cx="80" cy="13" r="0.42" fill="#c27a44" opacity=".45"/><circle cx="31" cy="67" r="0.54" fill="#c27a44" opacity=".45"/><circle cx="68" cy="34" r="0.6599999999999999" fill="#c27a44" opacity=".45"/><circle cx="19" cy="1" r="0.3" fill="#c27a44" opacity=".45"/><circle cx="56" cy="54" r="0.42" fill="#c27a44" opacity=".45"/><circle cx="7" cy="21" r="0.54" fill="#c27a44" opacity=".45"/><circle cx="44" cy="74" r="0.6599999999999999" fill="#c27a44" opacity=".45"/><circle cx="81" cy="41" r="0.3" fill="#c27a44" opacity=".45"/><circle cx="32" cy="9" r="0.42" fill="#c27a44" opacity=".45"/><circle cx="69" cy="62" r="0.54" fill="#c27a44" opacity=".45"/><circle cx="20" cy="29" r="0.6599999999999999" fill="#c27a44" opacity=".45"/><circle cx="57" cy="82" r="0.3" fill="#c27a44" opacity=".45"/><circle cx="8" cy="49" r="0.42" fill="#c27a44" opacity=".45"/><circle cx="45" cy="16" r="0.54" fill="#c27a44" opacity=".45"/><circle cx="82" cy="69" r="0.6599999999999999" fill="#c27a44" opacity=".45"/><circle cx="33" cy="37" r="0.3" fill="#c27a44" opacity=".45"/><circle cx="70" cy="4" r="0.42" fill="#c27a44" opacity=".45"/><circle cx="21" cy="57" r="0.54" fill="#c27a44" opacity=".45"/><circle cx="58" cy="24" r="0.6599999999999999" fill="#c27a44" opacity=".45"/><circle cx="9" cy="77" r="0.3" fill="#c27a44" opacity=".45"/><circle cx="46" cy="44" r="0.42" fill="#c27a44" opacity=".45"/><circle cx="83" cy="11" r="0.54" fill="#c27a44" opacity=".45"/><circle cx="34" cy="65" r="0.6599999999999999" fill="#c27a44" opacity=".45"/><circle cx="71" cy="32" r="0.3" fill="#c27a44" opacity=".45"/><circle cx="22" cy="85" r="0.42" fill="#c27a44" opacity=".45"/><circle cx="59" cy="52" r="0.54" fill="#c27a44" opacity=".45"/><circle cx="10" cy="19" r="0.6599999999999999" fill="#c27a44" opacity=".45"/><circle cx="47" cy="72" r="0.3" fill="#c27a44" opacity=".45"/><circle cx="84" cy="39" r="0.42" fill="#c27a44" opacity=".45"/><circle cx="35" cy="7" r="0.54" fill="#c27a44" opacity=".45"/><circle cx="72" cy="60" r="0.6599999999999999" fill="#c27a44" opacity=".45"/><circle cx="23" cy="27" r="0.3" fill="#c27a44" opacity=".45"/><circle cx="60" cy="80" r="0.42" fill="#c27a44" opacity=".45"/><circle cx="11" cy="47" r="0.54" fill="#c27a44" opacity=".45"/><circle cx="48" cy="14" r="0.6599999999999999" fill="#c27a44" opacity=".45"/><circle cx="85" cy="67" r="0.3" fill="#c27a44" opacity=".45"/><circle cx="36" cy="35" r="0.42" fill="#c27a44" opacity=".45"/><circle cx="73" cy="2" r="0.54" fill="#c27a44" opacity=".45"/><circle cx="24" cy="55" r="0.6599999999999999" fill="#c27a44" opacity=".45"/><circle cx="61" cy="22" r="0.3" fill="#c27a44" opacity=".45"/><circle cx="12" cy="75" r="0.42" fill="#c27a44" opacity=".45"/><circle cx="49" cy="42" r="0.54" fill="#c27a44" opacity=".45"/><circle cx="86" cy="9" r="0.6599999999999999" fill="#c27a44" opacity=".45"/><circle cx="37" cy="63" r="0.3" fill="#c27a44" opacity=".45"/><circle cx="74" cy="30" r="0.42" fill="#c27a44" opacity=".45"/><circle cx="25" cy="83" r="0.54" fill="#c27a44" opacity=".45"/><circle cx="62" cy="50" r="0.6599999999999999" fill="#c27a44" opacity=".45"/><circle cx="13" cy="17" r="0.3" fill="#c27a44" opacity=".45"/><circle cx="50" cy="70" r="0.42" fill="#c27a44" opacity=".45"/><circle cx="1" cy="37" r="0.54" fill="#c27a44" opacity=".45"/><circle cx="38" cy="5" r="0.6599999999999999" fill="#c27a44" opacity=".45"/><ellipse cx="26" cy="60" rx="5.0" ry="3.5999999999999996" fill="#b99468" opacity=".72"/><ellipse cx="62" cy="44" rx="6.4" ry="4.608" fill="#b99468" opacity=".72"/><ellipse cx="26" cy="32" rx="5.0" ry="3.5999999999999996" fill="#b99468" opacity=".72"/><ellipse cx="32" cy="52" rx="6.4" ry="4.608" fill="#b99468" opacity=".72"/><ellipse cx="56" cy="34" rx="5.0" ry="3.5999999999999996" fill="#b99468" opacity=".72"/><ellipse cx="32" cy="17" rx="6.4" ry="4.608" fill="#b99468" opacity=".72"/><ellipse cx="22" cy="16" rx="6.2" ry="4.4639999999999995" fill="#b99468" opacity=".72"/><ellipse cx="43" cy="16" rx="6.2" ry="4.4639999999999995" fill="#b99468" opacity=".72"/><ellipse cx="64" cy="16" rx="6.2" ry="4.4639999999999995" fill="#b99468" opacity=".72"/><polyline points="44.00,83.00 43.95,82.51 43.91,81.92 43.89,81.23 43.86,80.46 43.83,79.61 43.79,78.72 43.73,77.77 43.65,76.80 43.54,75.80 43.39,74.80 43.20,73.80 42.97,72.81 42.68,71.86 42.33,70.95 41.88,70.06 41.32,69.17 40.66,68.27 39.92,67.37 39.13,66.47 38.31,65.57 37.48,64.66 36.67,63.74 35.90,62.83 35.18,61.90 34.54,60.98 34.00,60.04 33.59,59.11 33.33,58.16 33.19,57.21 33.12,56.26 33.14,55.30 33.22,54.33 33.37,53.36 33.59,52.38 33.87,51.40 34.20,50.42 34.59,49.43 35.03,48.44 35.51,47.45 36.04,46.46 36.60,45.47 37.20,44.48 37.90,43.49 38.74,42.49 39.70,41.49 40.76,40.48 41.89,39.47 43.05,38.46 44.23,37.45 45.39,36.44 46.51,35.43 47.56,34.42 48.52,33.42 49.35,32.41 50.04,31.42 50.55,30.43 50.90,29.44 51.13,28.44 51.24,27.45 51.25,26.45 51.18,25.46 51.03,24.47 50.83,23.48 50.57,22.50 50.29,21.53 49.98,20.56 49.67,19.61 49.37,18.66 49.08,17.73 48.83,16.82 48.56,15.89 48.26,14.93 47.91,13.95 47.53,12.96 47.13,11.98 46.72,11.01 46.30,10.06 45.89,9.14 45.49,8.27 45.12,7.46 44.77,6.72 44.46,6.05 44.20,5.48 44.00,5.00" fill="none" stroke="#4b3428" stroke-width="5.6" stroke-linecap="round" stroke-linejoin="round" opacity=".45"/><polyline points="44.00,83.00 43.95,82.51 43.91,81.92 43.89,81.23 43.86,80.46 43.83,79.61 43.79,78.72 43.73,77.77 43.65,76.80 43.54,75.80 43.39,74.80 43.20,73.80 42.97,72.81 42.68,71.86 42.33,70.95 41.88,70.06 41.32,69.17 40.66,68.27 39.92,67.37 39.13,66.47 38.31,65.57 37.48,64.66 36.67,63.74 35.90,62.83 35.18,61.90 34.54,60.98 34.00,60.04 33.59,59.11 33.33,58.16 33.19,57.21 33.12,56.26 33.14,55.30 33.22,54.33 33.37,53.36 33.59,52.38 33.87,51.40 34.20,50.42 34.59,49.43 35.03,48.44 35.51,47.45 36.04,46.46 36.60,45.47 37.20,44.48 37.90,43.49 38.74,42.49 39.70,41.49 40.76,40.48 41.89,39.47 43.05,38.46 44.23,37.45 45.39,36.44 46.51,35.43 47.56,34.42 48.52,33.42 49.35,32.41 50.04,31.42 50.55,30.43 50.90,29.44 51.13,28.44 51.24,27.45 51.25,26.45 51.18,25.46 51.03,24.47 50.83,23.48 50.57,22.50 50.29,21.53 49.98,20.56 49.67,19.61 49.37,18.66 49.08,17.73 48.83,16.82 48.56,15.89 48.26,14.93 47.91,13.95 47.53,12.96 47.13,11.98 46.72,11.01 46.30,10.06 45.89,9.14 45.49,8.27 45.12,7.46 44.77,6.72 44.46,6.05 44.20,5.48 44.00,5.00" fill="none" stroke="#b99468" stroke-width="4.1" stroke-linecap="round" stroke-linejoin="round"/><polyline points="33.33,58.16 33.04,57.94 32.65,57.60 32.18,57.19 31.66,56.75 31.13,56.36 30.63,56.06 30.18,55.91 29.81,55.95 29.54,56.26 29.33,56.80 29.17,57.50 29.03,58.28 28.90,59.08 28.76,59.82 28.59,60.41 28.38,60.80 28.11,60.96 27.80,60.97 27.45,60.88 27.10,60.70 26.76,60.49 26.45,60.28 26.19,60.10 26.00,60.00" fill="none" stroke="#b99468" stroke-width="2.5" stroke-linecap="round" stroke-linejoin="round" opacity=".92"/><polyline points="48.52,33.42 49.15,33.43 50.04,33.40 51.10,33.36 52.25,33.34 53.41,33.39 54.50,33.54 55.43,33.83 56.11,34.29 56.53,35.01 56.73,35.97 56.80,37.11 56.78,38.33 56.74,39.56 56.74,40.71 56.85,41.70 57.11,42.45 57.57,42.97 58.18,43.34 58.88,43.58 59.62,43.74 60.35,43.82 61.03,43.88 61.60,43.93 62.00,44.00" fill="none" stroke="#b99468" stroke-width="2.5" stroke-linecap="round" stroke-linejoin="round" opacity=".92"/><polyline points="38.74,42.49 38.66,41.82 38.61,40.85 38.56,39.69 38.47,38.44 38.31,37.21 38.04,36.09 37.64,35.20 37.08,34.64 36.26,34.47 35.19,34.61 33.96,34.98 32.64,35.46 31.31,35.97 30.06,36.41 28.98,36.67 28.14,36.67 27.53,36.38 27.07,35.87 26.74,35.21 26.51,34.46 26.35,33.71 26.22,33.00 26.12,32.41 26.00,32.00" fill="none" stroke="#b99468" stroke-width="2.5" stroke-linecap="round" stroke-linejoin="round" opacity=".92"/><polyline points="33.59,52.38 33.48,52.64 33.31,53.05 33.12,53.53 32.91,54.04 32.70,54.51 32.52,54.90 32.37,55.13 32.29,55.15 32.27,54.91 32.31,54.43 32.39,53.80 32.49,53.07 32.59,52.33 32.69,51.66 32.75,51.12 32.76,50.79 32.72,50.69 32.64,50.73 32.53,50.89 32.41,51.12 32.28,51.39 32.17,51.65 32.07,51.87 32.00,52.00" fill="none" stroke="#b99468" stroke-width="2.5" stroke-linecap="round" stroke-linejoin="round" opacity=".92"/><polyline points="50.04,31.42 50.07,31.84 50.08,32.47 50.08,33.22 50.11,34.02 50.16,34.79 50.27,35.44 50.45,35.89 50.72,36.07 51.10,35.90 51.62,35.44 52.22,34.77 52.86,33.99 53.51,33.19 54.12,32.47 54.64,31.92 55.05,31.63 55.33,31.61 55.55,31.80 55.69,32.12 55.79,32.53 55.86,32.98 55.91,33.41 55.95,33.77 56.00,34.00" fill="none" stroke="#b99468" stroke-width="2.5" stroke-linecap="round" stroke-linejoin="round" opacity=".92"/><polyline points="46.72,11.01 46.46,11.62 46.15,12.52 45.78,13.60 45.35,14.75 44.86,15.87 44.31,16.84 43.69,17.56 43.01,17.91 42.21,17.83 41.26,17.36 40.21,16.64 39.12,15.77 38.03,14.88 36.99,14.09 36.05,13.50 35.27,13.24 34.63,13.33 34.06,13.67 33.57,14.20 33.15,14.83 32.79,15.49 32.48,16.13 32.22,16.65 32.00,17.00" fill="none" stroke="#b99468" stroke-width="2.5" stroke-linecap="round" stroke-linejoin="round" opacity=".92"/><polyline points="44.46,6.05 43.68,6.09 42.62,6.09 41.35,6.09 39.96,6.11 38.51,6.19 37.11,6.36 35.81,6.65 34.71,7.09 33.80,7.75 32.99,8.62 32.27,9.64 31.59,10.74 30.94,11.84 30.28,12.87 29.59,13.76 28.84,14.45 27.98,14.93 27.03,15.28 26.04,15.52 25.05,15.68 24.11,15.79 23.25,15.86 22.53,15.92 22.00,16.00" fill="none" stroke="#b99468" stroke-width="2.5" stroke-linecap="round" stroke-linejoin="round" opacity=".92"/><polyline points="47.91,13.95 47.91,14.36 47.93,14.97 47.97,15.70 47.99,16.48 47.98,17.22 47.92,17.84 47.80,18.27 47.58,18.42 47.25,18.23 46.78,17.74 46.24,17.04 45.65,16.23 45.07,15.41 44.51,14.66 44.04,14.08 43.68,13.77 43.44,13.73 43.27,13.89 43.16,14.20 43.10,14.59 43.06,15.02 43.05,15.44 43.03,15.78 43.00,16.00" fill="none" stroke="#b99468" stroke-width="2.5" stroke-linecap="round" stroke-linejoin="round" opacity=".92"/><polyline points="49.98,20.56 50.54,20.87 51.32,21.37 52.25,21.98 53.26,22.60 54.30,23.16 55.28,23.56 56.16,23.73 56.86,23.58 57.37,23.01 57.74,22.06 58.03,20.85 58.26,19.49 58.47,18.13 58.70,16.86 58.99,15.83 59.38,15.14 59.89,14.81 60.50,14.72 61.16,14.82 61.85,15.04 62.51,15.33 63.12,15.63 63.63,15.87 64.00,16.00" fill="none" stroke="#b99468" stroke-width="2.5" stroke-linecap="round" stroke-linejoin="round" opacity=".92"/></svg>